<?xml version="1.0" standalone="no"?>
<!DOCTYPE svg PUBLIC "-//W3C//DTD SVG 20010904//EN"
 "http://www.w3.org/TR/2001/REC-SVG-20010904/DTD/svg10.dtd">
<svg version="1.0" xmlns="http://www.w3.org/2000/svg"
 width="883.000000pt" height="883.000000pt" viewBox="0 0 883.000000 883.000000"
 preserveAspectRatio="xMidYMid meet">
<metadata>
Created by potrace 1.14, written by Peter Selinger 2001-2017
</metadata>
<g transform="translate(0.000000,883.000000) scale(0.100000,-0.100000)"
fill="#000000" stroke="none">
<path d="M4120 7525 c0 -3 11 -23 25 -45 81 -128 123 -268 131 -430 10 -198
-34 -399 -134 -610 -48 -102 -140 -256 -152 -253 -4 1 -7 -5 -6 -15 0 -9 -5
-16 -12 -14 -8 1 -11 -2 -7 -8 8 -14 -45 -81 -58 -73 -5 3 -7 1 -3 -5 8 -13
-88 -138 -104 -134 -6 1 -9 -2 -5 -8 7 -11 -108 -155 -176 -220 -20 -20 -38
-40 -40 -46 -3 -10 -82 -100 -164 -189 -13 -13 -26 -21 -31 -17 -4 4 -4 2 -1
-4 8 -14 -82 -116 -95 -108 -7 4 -8 2 -4 -5 4 -6 -8 -30 -28 -54 -71 -84 -133
-163 -150 -189 -10 -15 -21 -26 -25 -23 -4 2 -8 -1 -8 -8 0 -7 -27 -52 -60
-102 -33 -49 -72 -110 -87 -135 -15 -25 -31 -52 -36 -60 -5 -8 -20 -40 -34
-70 -13 -30 -34 -77 -46 -104 -47 -105 -91 -261 -110 -391 -18 -118 -15 -334
6 -430 9 -44 17 -92 18 -107 1 -14 3 -25 5 -22 2 2 19 -36 38 -84 19 -48 39
-95 44 -106 6 -10 20 -34 30 -53 11 -19 17 -39 13 -44 -3 -5 0 -8 6 -7 6 2 21
-15 33 -36 12 -22 30 -49 40 -60 16 -19 21 -32 18 -49 -1 -5 4 -5 10 -1 9 5
10 2 6 -10 -4 -9 -3 -15 2 -12 5 3 21 -13 37 -36 16 -23 39 -53 52 -67 28 -30
22 -37 -15 -16 -15 8 -47 26 -71 40 -101 57 -226 160 -215 178 3 6 1 7 -4 4
-13 -8 -103 94 -155 173 -108 166 -189 412 -204 618 -7 95 -9 103 -29 96 -8
-3 -13 -10 -10 -14 2 -4 -11 -45 -29 -91 -19 -46 -42 -110 -52 -141 -9 -31
-20 -55 -23 -54 -3 2 -6 -8 -7 -22 0 -15 -13 -76 -27 -137 -115 -488 -43
-1026 193 -1425 17 -28 27 -56 24 -62 -4 -6 -3 -8 3 -5 5 3 36 -33 69 -81 75
-111 245 -287 377 -390 56 -44 157 -111 224 -150 67 -38 119 -73 115 -77 -4
-5 -1 -5 5 -1 7 4 49 -9 93 -28 96 -43 258 -98 355 -121 39 -9 77 -19 85 -22
8 -3 24 -7 35 -8 11 -1 85 -13 165 -25 196 -32 629 -35 810 -7 284 45 585 142
808 263 35 19 69 31 75 27 7 -3 9 -2 4 2 -6 7 114 95 130 95 3 0 23 16 46 35
22 19 44 35 49 35 4 0 16 8 26 18 46 44 102 92 106 92 7 0 82 77 141 145 28
32 55 63 61 69 6 6 37 49 69 96 32 47 61 87 64 90 6 5 44 76 96 180 175 350
256 888 190 1263 -43 240 -149 506 -306 762 -13 22 -22 42 -21 44 2 2 0 7 -5
10 -11 7 -73 97 -73 105 0 3 -18 31 -40 62 -22 32 -40 63 -40 71 0 7 -4 13 -9
13 -8 0 -59 74 -194 282 -32 48 -57 90 -57 94 0 4 -7 15 -15 24 -8 9 -41 70
-74 136 -90 182 -131 329 -131 476 0 129 57 325 94 321 17 -1 17 0 3 14 -9 10
-23 13 -34 9 -10 -4 -20 -7 -21 -6 -2 1 -9 -6 -16 -16 -8 -11 -18 -14 -26 -9
-9 6 -11 4 -5 -5 5 -9 1 -11 -16 -6 -13 3 -18 3 -11 0 9 -4 0 -19 -29 -49 -24
-24 -47 -41 -53 -38 -5 3 -6 1 -2 -5 4 -6 -1 -19 -11 -29 -10 -10 -36 -48 -58
-85 -22 -36 -43 -65 -46 -63 -3 2 -6 -1 -6 -8 0 -7 -17 -59 -36 -117 -45 -131
-58 -244 -46 -391 13 -160 36 -258 134 -561 64 -198 85 -300 85 -414 0 -173
-50 -399 -124 -559 -62 -133 -188 -321 -208 -309 -6 4 -8 3 -4 -4 7 -11 -89
-122 -106 -122 -7 0 -7 4 0 13 12 14 85 197 97 242 5 17 9 35 11 40 56 215 53
488 -8 660 -19 54 -113 249 -128 266 -8 9 -33 38 -55 65 -22 26 -64 71 -93 99
-28 28 -49 55 -45 60 5 4 2 5 -4 1 -7 -4 -35 10 -65 32 -60 44 -194 113 -202
105 -3 -3 3 -17 14 -31 11 -13 17 -29 13 -35 -3 -5 -1 -7 5 -3 13 8 64 -82 55
-98 -3 -6 -2 -8 2 -3 5 4 15 -7 23 -25 99 -233 74 -487 -64 -633 -123 -130
-279 -124 -415 15 -132 136 -174 332 -119 556 20 81 87 235 141 324 55 91 192
275 203 272 6 -2 8 -1 4 3 -3 4 27 57 69 118 69 104 223 398 223 428 0 8 10
41 21 74 29 87 59 272 66 410 18 374 -111 711 -371 970 -56 55 -129 119 -164
142 -35 22 -60 43 -55 45 4 3 2 3 -4 2 -7 -2 -43 12 -79 31 -65 34 -84 41 -84
30z"/>
</g>
</svg>
